<mxfile host="app.diagrams.net" modified="2023-06-20T18:14:00.523Z" agent="Mozilla/5.0 (Windows NT 10.0; Win64; x64) AppleWebKit/537.36 (KHTML, like Gecko) Chrome/114.0.0.0 Safari/537.36" etag="EmTTcNq4e6g9bo8xf-Pc" version="21.5.0" type="device">
  <diagram name="Página-1" id="KpHakPgRne8XzhzcIuOb">
    <mxGraphModel dx="1050" dy="573" grid="1" gridSize="10" guides="1" tooltips="1" connect="1" arrows="1" fold="1" page="1" pageScale="1" pageWidth="827" pageHeight="1169" math="0" shadow="0">
      <root>
        <mxCell id="0" />
        <mxCell id="1" parent="0" />
        <mxCell id="5LD4BWL9sDIMhoghvgCV-12" style="edgeStyle=orthogonalEdgeStyle;rounded=0;orthogonalLoop=1;jettySize=auto;html=1;exitX=0.5;exitY=1;exitDx=0;exitDy=0;entryX=0.5;entryY=0;entryDx=0;entryDy=0;" edge="1" parent="1" source="5LD4BWL9sDIMhoghvgCV-1" target="5LD4BWL9sDIMhoghvgCV-4">
          <mxGeometry relative="1" as="geometry" />
        </mxCell>
        <mxCell id="5LD4BWL9sDIMhoghvgCV-1" value="Inico" style="rounded=0;whiteSpace=wrap;html=1;" vertex="1" parent="1">
          <mxGeometry x="280" y="20" width="120" height="60" as="geometry" />
        </mxCell>
        <mxCell id="5LD4BWL9sDIMhoghvgCV-24" style="edgeStyle=orthogonalEdgeStyle;rounded=0;orthogonalLoop=1;jettySize=auto;html=1;exitX=0.5;exitY=1;exitDx=0;exitDy=0;" edge="1" parent="1" source="5LD4BWL9sDIMhoghvgCV-3" target="5LD4BWL9sDIMhoghvgCV-18">
          <mxGeometry relative="1" as="geometry" />
        </mxCell>
        <mxCell id="5LD4BWL9sDIMhoghvgCV-3" value="pegar a laranja" style="rounded=1;whiteSpace=wrap;html=1;" vertex="1" parent="1">
          <mxGeometry x="294" y="400" width="120" height="60" as="geometry" />
        </mxCell>
        <mxCell id="5LD4BWL9sDIMhoghvgCV-8" style="edgeStyle=orthogonalEdgeStyle;rounded=0;orthogonalLoop=1;jettySize=auto;html=1;exitX=1;exitY=0.5;exitDx=0;exitDy=0;entryX=0.5;entryY=0;entryDx=0;entryDy=0;" edge="1" parent="1" source="5LD4BWL9sDIMhoghvgCV-4" target="5LD4BWL9sDIMhoghvgCV-7">
          <mxGeometry relative="1" as="geometry" />
        </mxCell>
        <mxCell id="5LD4BWL9sDIMhoghvgCV-17" style="edgeStyle=orthogonalEdgeStyle;rounded=0;orthogonalLoop=1;jettySize=auto;html=1;exitX=0.5;exitY=1;exitDx=0;exitDy=0;entryX=0.387;entryY=0.003;entryDx=0;entryDy=0;entryPerimeter=0;" edge="1" parent="1" source="5LD4BWL9sDIMhoghvgCV-4" target="5LD4BWL9sDIMhoghvgCV-3">
          <mxGeometry relative="1" as="geometry" />
        </mxCell>
        <mxCell id="5LD4BWL9sDIMhoghvgCV-4" value="tem a laranja ?" style="ellipse;whiteSpace=wrap;html=1;" vertex="1" parent="1">
          <mxGeometry x="280" y="120" width="120" height="80" as="geometry" />
        </mxCell>
        <mxCell id="5LD4BWL9sDIMhoghvgCV-6" value="sim" style="text;html=1;strokeColor=none;fillColor=none;align=center;verticalAlign=middle;whiteSpace=wrap;rounded=0;" vertex="1" parent="1">
          <mxGeometry x="280" y="270" width="60" height="30" as="geometry" />
        </mxCell>
        <mxCell id="5LD4BWL9sDIMhoghvgCV-14" style="edgeStyle=orthogonalEdgeStyle;rounded=0;orthogonalLoop=1;jettySize=auto;html=1;exitX=0.5;exitY=1;exitDx=0;exitDy=0;entryX=0.5;entryY=0;entryDx=0;entryDy=0;" edge="1" parent="1" source="5LD4BWL9sDIMhoghvgCV-7" target="5LD4BWL9sDIMhoghvgCV-13">
          <mxGeometry relative="1" as="geometry" />
        </mxCell>
        <mxCell id="5LD4BWL9sDIMhoghvgCV-7" value="ir comprar a laranja" style="rounded=1;whiteSpace=wrap;html=1;" vertex="1" parent="1">
          <mxGeometry x="470" y="240" width="120" height="60" as="geometry" />
        </mxCell>
        <mxCell id="5LD4BWL9sDIMhoghvgCV-9" value="não" style="text;html=1;strokeColor=none;fillColor=none;align=center;verticalAlign=middle;whiteSpace=wrap;rounded=0;" vertex="1" parent="1">
          <mxGeometry x="530" y="160" width="60" height="30" as="geometry" />
        </mxCell>
        <mxCell id="5LD4BWL9sDIMhoghvgCV-16" style="edgeStyle=orthogonalEdgeStyle;rounded=0;orthogonalLoop=1;jettySize=auto;html=1;exitX=0.5;exitY=1;exitDx=0;exitDy=0;" edge="1" parent="1" source="5LD4BWL9sDIMhoghvgCV-13" target="5LD4BWL9sDIMhoghvgCV-3">
          <mxGeometry relative="1" as="geometry" />
        </mxCell>
        <mxCell id="5LD4BWL9sDIMhoghvgCV-13" value="chegar em casa" style="rounded=1;whiteSpace=wrap;html=1;" vertex="1" parent="1">
          <mxGeometry x="470" y="340" width="120" height="60" as="geometry" />
        </mxCell>
        <mxCell id="5LD4BWL9sDIMhoghvgCV-25" style="edgeStyle=orthogonalEdgeStyle;rounded=0;orthogonalLoop=1;jettySize=auto;html=1;exitX=0.5;exitY=1;exitDx=0;exitDy=0;entryX=0.5;entryY=0;entryDx=0;entryDy=0;" edge="1" parent="1" source="5LD4BWL9sDIMhoghvgCV-18" target="5LD4BWL9sDIMhoghvgCV-19">
          <mxGeometry relative="1" as="geometry" />
        </mxCell>
        <mxCell id="5LD4BWL9sDIMhoghvgCV-18" value="pegar a faca" style="rounded=1;whiteSpace=wrap;html=1;" vertex="1" parent="1">
          <mxGeometry x="294" y="510" width="120" height="60" as="geometry" />
        </mxCell>
        <mxCell id="5LD4BWL9sDIMhoghvgCV-26" style="edgeStyle=orthogonalEdgeStyle;rounded=0;orthogonalLoop=1;jettySize=auto;html=1;exitX=0.5;exitY=1;exitDx=0;exitDy=0;entryX=0.45;entryY=0.05;entryDx=0;entryDy=0;entryPerimeter=0;" edge="1" parent="1" source="5LD4BWL9sDIMhoghvgCV-19" target="5LD4BWL9sDIMhoghvgCV-21">
          <mxGeometry relative="1" as="geometry" />
        </mxCell>
        <mxCell id="5LD4BWL9sDIMhoghvgCV-19" value="descascar a laranja" style="rounded=1;whiteSpace=wrap;html=1;" vertex="1" parent="1">
          <mxGeometry x="294" y="620" width="120" height="60" as="geometry" />
        </mxCell>
        <mxCell id="5LD4BWL9sDIMhoghvgCV-28" style="edgeStyle=orthogonalEdgeStyle;rounded=0;orthogonalLoop=1;jettySize=auto;html=1;exitX=0.5;exitY=1;exitDx=0;exitDy=0;entryX=0.5;entryY=0;entryDx=0;entryDy=0;" edge="1" parent="1" source="5LD4BWL9sDIMhoghvgCV-20" target="5LD4BWL9sDIMhoghvgCV-22">
          <mxGeometry relative="1" as="geometry" />
        </mxCell>
        <mxCell id="5LD4BWL9sDIMhoghvgCV-20" value="cortar a laranja" style="rounded=1;whiteSpace=wrap;html=1;" vertex="1" parent="1">
          <mxGeometry x="300" y="840" width="120" height="60" as="geometry" />
        </mxCell>
        <mxCell id="5LD4BWL9sDIMhoghvgCV-27" style="edgeStyle=orthogonalEdgeStyle;rounded=0;orthogonalLoop=1;jettySize=auto;html=1;exitX=0.5;exitY=1;exitDx=0;exitDy=0;entryX=0.5;entryY=0;entryDx=0;entryDy=0;" edge="1" parent="1" source="5LD4BWL9sDIMhoghvgCV-21" target="5LD4BWL9sDIMhoghvgCV-20">
          <mxGeometry relative="1" as="geometry" />
        </mxCell>
        <mxCell id="5LD4BWL9sDIMhoghvgCV-21" value="jogara a casca fora" style="rounded=1;whiteSpace=wrap;html=1;" vertex="1" parent="1">
          <mxGeometry x="300" y="730" width="120" height="60" as="geometry" />
        </mxCell>
        <mxCell id="5LD4BWL9sDIMhoghvgCV-29" style="edgeStyle=orthogonalEdgeStyle;rounded=0;orthogonalLoop=1;jettySize=auto;html=1;exitX=0.5;exitY=1;exitDx=0;exitDy=0;entryX=0.5;entryY=0;entryDx=0;entryDy=0;" edge="1" parent="1" source="5LD4BWL9sDIMhoghvgCV-22" target="5LD4BWL9sDIMhoghvgCV-23">
          <mxGeometry relative="1" as="geometry" />
        </mxCell>
        <mxCell id="5LD4BWL9sDIMhoghvgCV-22" value="comer a laranja" style="rounded=1;whiteSpace=wrap;html=1;" vertex="1" parent="1">
          <mxGeometry x="300" y="960" width="120" height="60" as="geometry" />
        </mxCell>
        <mxCell id="5LD4BWL9sDIMhoghvgCV-23" value="fim" style="rounded=0;whiteSpace=wrap;html=1;" vertex="1" parent="1">
          <mxGeometry x="300" y="1070" width="120" height="60" as="geometry" />
        </mxCell>
      </root>
    </mxGraphModel>
  </diagram>
</mxfile>
